<svg width="111" height="23" viewBox="0 0 111 23" fill="none" xmlns="http://www.w3.org/2000/svg">
<path d="M4.928 14.28L4.664 8.952L11.888 1.2H17.12L9.92 9L7.28 11.76L4.928 14.28ZM0.68 18V1.2H5.384V18H0.68ZM11.96 18L6.488 11.064L9.584 7.752L17.48 18H11.96ZM24.8113 18.216C23.2753 18.216 21.9313 17.928 20.7793 17.352C19.6433 16.76 18.7553 15.96 18.1152 14.952C17.4913 13.928 17.1793 12.768 17.1793 11.472C17.1793 10.176 17.4833 9.024 18.0913 8.016C18.7153 6.992 19.5713 6.2 20.6593 5.64C21.7473 5.064 22.9713 4.776 24.3313 4.776C25.6113 4.776 26.7793 5.04 27.8353 5.568C28.8913 6.08 29.7313 6.84 30.3553 7.848C30.9793 8.856 31.2913 10.08 31.2913 11.52C31.2913 11.68 31.2833 11.864 31.2673 12.072C31.2513 12.28 31.2353 12.472 31.2193 12.648H20.9233V10.248H28.7953L27.0673 10.92C27.0833 10.328 26.9713 9.816 26.7313 9.384C26.5073 8.952 26.1873 8.616 25.7713 8.376C25.3713 8.136 24.8993 8.016 24.3553 8.016C23.8113 8.016 23.3313 8.136 22.9153 8.376C22.5153 8.616 22.2033 8.96 21.9793 9.408C21.7553 9.84 21.6433 10.352 21.6433 10.944V11.64C21.6433 12.28 21.7713 12.832 22.0273 13.296C22.2993 13.76 22.6833 14.12 23.1793 14.376C23.6753 14.616 24.2673 14.736 24.9553 14.736C25.5953 14.736 26.1393 14.648 26.5873 14.472C27.0513 14.28 27.5073 13.992 27.9553 13.608L30.3553 16.104C29.7313 16.792 28.9633 17.32 28.0513 17.688C27.1393 18.04 26.0593 18.216 24.8113 18.216ZM35.3913 22.872C34.7033 22.872 34.0073 22.76 33.3033 22.536C32.6153 22.328 32.0553 22.048 31.6233 21.696L33.2073 18.504C33.4793 18.744 33.7913 18.928 34.1433 19.056C34.5113 19.2 34.8713 19.272 35.2233 19.272C35.7193 19.272 36.1113 19.16 36.3993 18.936C36.6873 18.712 36.9353 18.36 37.1433 17.88L37.7433 16.368L38.1033 15.912L42.5193 4.992H46.8633L41.2473 18.528C40.7993 19.648 40.2793 20.52 39.6873 21.144C39.1113 21.784 38.4633 22.232 37.7433 22.488C37.0393 22.744 36.2553 22.872 35.3913 22.872ZM37.1673 18.552L31.4313 4.992H36.1113L40.3353 15.504L37.1673 18.552ZM54.1153 18.336C52.7393 18.336 51.4113 18.168 50.1313 17.832C48.8673 17.48 47.8353 17.032 47.0353 16.488L48.5953 12.984C49.3473 13.464 50.2113 13.864 51.1873 14.184C52.1793 14.488 53.1633 14.64 54.1393 14.64C54.7953 14.64 55.3233 14.584 55.7233 14.472C56.1233 14.344 56.4113 14.184 56.5873 13.992C56.7793 13.784 56.8753 13.544 56.8753 13.272C56.8753 12.888 56.6993 12.584 56.3473 12.36C55.9953 12.136 55.5393 11.952 54.9793 11.808C54.4193 11.664 53.7953 11.52 53.1073 11.376C52.4353 11.232 51.7553 11.048 51.0673 10.824C50.3953 10.6 49.7793 10.312 49.2193 9.96C48.6593 9.592 48.2033 9.12 47.8513 8.544C47.4993 7.952 47.3232 7.208 47.3232 6.312C47.3232 5.304 47.5953 4.392 48.1393 3.576C48.6993 2.76 49.5313 2.104 50.6353 1.608C51.7393 1.112 53.1153 0.863999 54.7633 0.863999C55.8673 0.863999 56.9473 0.991999 58.0033 1.248C59.0753 1.488 60.0273 1.848 60.8593 2.328L59.3953 5.856C58.5953 5.424 57.8033 5.104 57.0193 4.896C56.2353 4.672 55.4753 4.56 54.7393 4.56C54.0833 4.56 53.5553 4.632 53.1553 4.776C52.7553 4.904 52.4673 5.08 52.2913 5.304C52.1153 5.528 52.0273 5.784 52.0273 6.072C52.0273 6.44 52.1953 6.736 52.5312 6.96C52.8833 7.168 53.3393 7.344 53.8993 7.488C54.4753 7.616 55.0993 7.752 55.7713 7.896C56.4593 8.04 57.1393 8.224 57.8113 8.448C58.4993 8.656 59.1233 8.944 59.6833 9.312C60.2433 9.664 60.6913 10.136 61.0273 10.728C61.3793 11.304 61.5553 12.032 61.5553 12.912C61.5553 13.888 61.2753 14.792 60.7153 15.624C60.1713 16.44 59.3473 17.096 58.2433 17.592C57.1553 18.088 55.7793 18.336 54.1153 18.336ZM72.0063 4.776C73.0143 4.776 73.9263 4.984 74.7423 5.4C75.5583 5.8 76.1983 6.424 76.6623 7.272C77.1423 8.12 77.3823 9.216 77.3823 10.56V18H72.8223V11.304C72.8223 10.376 72.6303 9.704 72.2463 9.288C71.8783 8.856 71.3583 8.64 70.6863 8.64C70.2063 8.64 69.7663 8.752 69.3663 8.976C68.9663 9.184 68.6543 9.512 68.4303 9.96C68.2063 10.408 68.0943 10.992 68.0943 11.712V18H63.5343V0.191999H68.0943V8.688L67.0383 7.608C67.5343 6.664 68.2143 5.96 69.0783 5.496C69.9423 5.016 70.9183 4.776 72.0063 4.776ZM86.9373 18.216C85.5133 18.216 84.2493 17.928 83.1453 17.352C82.0413 16.776 81.1693 15.984 80.5293 14.976C79.9053 13.952 79.5933 12.784 79.5933 11.472C79.5933 10.16 79.9053 9 80.5293 7.992C81.1693 6.984 82.0413 6.2 83.1453 5.64C84.2493 5.064 85.5133 4.776 86.9373 4.776C88.3613 4.776 89.6253 5.064 90.7293 5.64C91.8493 6.2 92.7213 6.984 93.3453 7.992C93.9693 9 94.2813 10.16 94.2813 11.472C94.2813 12.784 93.9693 13.952 93.3453 14.976C92.7213 15.984 91.8493 16.776 90.7293 17.352C89.6253 17.928 88.3613 18.216 86.9373 18.216ZM86.9373 14.592C87.4653 14.592 87.9293 14.472 88.3293 14.232C88.7453 13.992 89.0733 13.64 89.3133 13.176C89.5533 12.696 89.6733 12.128 89.6733 11.472C89.6733 10.816 89.5533 10.264 89.3133 9.816C89.0733 9.352 88.7453 9 88.3293 8.76C87.9293 8.52 87.4653 8.4 86.9373 8.4C86.4253 8.4 85.9613 8.52 85.5453 8.76C85.1453 9 84.8173 9.352 84.5613 9.816C84.3213 10.264 84.2013 10.816 84.2013 11.472C84.2013 12.128 84.3213 12.696 84.5613 13.176C84.8173 13.64 85.1453 13.992 85.5453 14.232C85.9613 14.472 86.4253 14.592 86.9373 14.592ZM104.578 18.216C103.474 18.216 102.53 17.976 101.746 17.496C100.962 17 100.362 16.264 99.9457 15.288C99.5457 14.296 99.3457 13.032 99.3457 11.496C99.3457 9.944 99.5377 8.68 99.9217 7.704C100.306 6.712 100.882 5.976 101.65 5.496C102.434 5.016 103.41 4.776 104.578 4.776C105.762 4.776 106.834 5.056 107.794 5.616C108.77 6.16 109.538 6.936 110.098 7.944C110.674 8.936 110.962 10.12 110.962 11.496C110.962 12.872 110.674 14.064 110.098 15.072C109.538 16.08 108.77 16.856 107.794 17.4C106.834 17.944 105.762 18.216 104.578 18.216ZM96.3937 22.656V4.992H100.738V7.2L100.714 11.496L100.954 15.816V22.656H96.3937ZM103.618 14.592C104.13 14.592 104.586 14.472 104.986 14.232C105.402 13.992 105.73 13.64 105.97 13.176C106.226 12.712 106.354 12.152 106.354 11.496C106.354 10.84 106.226 10.28 105.97 9.816C105.73 9.352 105.402 9 104.986 8.76C104.586 8.52 104.13 8.4 103.618 8.4C103.106 8.4 102.642 8.52 102.226 8.76C101.826 9 101.498 9.352 101.242 9.816C101.002 10.28 100.882 10.84 100.882 11.496C100.882 12.152 101.002 12.712 101.242 13.176C101.498 13.64 101.826 13.992 102.226 14.232C102.642 14.472 103.106 14.592 103.618 14.592Z" fill="black"/>
</svg>
