<svg width="28" height="28" viewBox="0 0 28 28" fill="none" xmlns="http://www.w3.org/2000/svg">
<path d="M13.8 0C6.18557 0 0 6.18558 0 13.8C0 21.4144 6.18557 27.6 13.8 27.6C21.4144 27.6 27.6 21.4144 27.6 13.8C27.6 6.18558 21.4144 0 13.8 0ZM13.8 1.2C20.7659 1.2 26.4 6.8341 26.4 13.8C26.4 20.7659 20.7659 26.4 13.8 26.4C6.8341 26.4 1.2 20.7659 1.2 13.8C1.2 6.8341 6.8341 1.2 13.8 1.2ZM19.2527 7.22109C18.8423 7.22109 18.3812 7.31615 17.8418 7.51055C17.0042 7.81235 7.15244 11.9953 6.03164 12.4711C5.39084 12.7435 4.19766 13.2502 4.19766 14.4586C4.19766 15.2596 4.66702 15.8325 5.59102 16.1625C6.08782 16.3395 7.26774 16.6971 7.95234 16.8855C8.24274 16.9653 8.55135 17.0062 8.86875 17.0062C9.48975 17.0062 10.1147 16.8515 10.6043 16.5785C10.6001 16.6793 10.6028 16.7812 10.6148 16.8832C10.6886 17.5132 11.0771 18.1057 11.6531 18.4687C12.0299 18.7063 15.1076 20.7685 15.5672 21.0961C16.2128 21.5575 16.9265 21.8016 17.6297 21.8016C18.9737 21.8016 19.4246 20.4139 19.6418 19.7473C19.9568 18.7795 21.1363 10.9093 21.2695 9.52148C21.3601 8.57048 20.9638 7.78737 20.209 7.42617C19.9264 7.28997 19.6037 7.22109 19.2527 7.22109ZM19.2527 8.42109C19.4177 8.42109 19.565 8.44838 19.6898 8.50898C19.9736 8.64518 20.118 8.94881 20.0742 9.40781C19.929 10.9216 18.7524 18.6054 18.5016 19.3758C18.2868 20.0346 18.0605 20.6016 17.6297 20.6016C17.1989 20.6016 16.7283 20.4505 16.2645 20.1187C15.8007 19.7875 12.7208 17.7221 12.293 17.4527C11.918 17.2163 11.5211 16.627 12.0797 16.057C12.5399 15.5878 16.0307 12.1998 16.3289 11.9016C16.5509 11.679 16.4471 11.4105 16.2293 11.4105C16.1543 11.4105 16.0645 11.4422 15.9715 11.5184C15.6067 11.8166 10.5209 15.2198 10.0805 15.4934C9.78887 15.6746 9.33735 15.8051 8.86875 15.8051C8.66895 15.8051 8.46667 15.7811 8.27227 15.7277C7.59547 15.5411 6.45011 15.1936 5.99531 15.0316C5.55791 14.8756 5.39883 14.7262 5.39883 14.4586C5.39883 14.0782 5.93576 13.8156 6.50156 13.575C7.09916 13.3212 17.4396 8.93006 18.2484 8.63906C18.6228 8.50346 18.9653 8.42109 19.2527 8.42109Z" fill="black"/>
</svg>
