<svg width="30" height="30" viewBox="0 0 30 30" fill="none" xmlns="http://www.w3.org/2000/svg">
<path d="M5.3999 2.4C3.75019 2.4 2.3999 3.75029 2.3999 5.4V24.6C2.3999 26.2497 3.75019 27.6 5.3999 27.6H24.5999C26.2496 27.6 27.5999 26.2497 27.5999 24.6V5.4C27.5999 3.75029 26.2496 2.4 24.5999 2.4H5.3999ZM5.3999 3.6H24.5999C25.601 3.6 26.3999 4.39891 26.3999 5.4V24.6C26.3999 25.6011 25.601 26.4 24.5999 26.4H5.3999C4.39881 26.4 3.5999 25.6011 3.5999 24.6V5.4C3.5999 4.39891 4.39881 3.6 5.3999 3.6ZM14.0378 9.59531C13.4033 9.59386 12.8375 9.62932 12.3315 9.87774L12.3304 9.87891C12.0837 10.0004 11.9098 10.1548 11.7714 10.3383C11.7022 10.43 11.6313 10.5124 11.5933 10.7215C11.5743 10.826 11.5636 10.9955 11.6729 11.1785C11.7823 11.3615 12.0022 11.4656 12.1429 11.4844C12.2406 11.4974 12.4612 11.5913 12.4815 11.6191L12.4827 11.6215C12.4827 11.6215 12.5683 11.8447 12.5929 12.0434C12.6175 12.242 12.6163 12.4031 12.6163 12.4031C12.6161 12.4192 12.6164 12.4352 12.6175 12.4512C12.6175 12.4512 12.6522 12.9717 12.6292 13.5094C12.62 13.7237 12.5923 13.9143 12.5636 14.0848C12.3499 13.8489 12.0351 13.4217 11.5804 12.634C11.076 11.7597 10.6745 10.9758 10.6745 10.9758C10.6534 10.9075 10.5789 10.695 10.2878 10.4813C9.9696 10.2467 9.66201 10.2117 9.66201 10.2117C9.62343 10.204 9.58418 10.2001 9.54482 10.2L7.17998 10.2012C7.17998 10.2012 7.03819 10.193 6.86826 10.2164C6.69833 10.2398 6.44245 10.2589 6.19561 10.5516L6.19443 10.5527C5.97382 10.8163 5.98717 11.1077 6.01397 11.2723C6.04076 11.4368 6.10068 11.5617 6.10068 11.5617C6.10184 11.5641 6.10301 11.5664 6.1042 11.5688C6.1042 11.5688 8.03853 15.6357 10.2245 18.0305C11.8119 19.7693 13.4412 19.7988 14.7854 19.7988H15.7886C16.0447 19.7988 16.2763 19.7888 16.5327 19.6395C16.7891 19.4901 16.9616 19.1265 16.9616 18.8742C16.9616 18.6099 17.0011 18.4021 17.0495 18.2953C17.0836 18.2202 17.1105 18.1931 17.1526 18.1711C17.1615 18.1767 17.1558 18.1735 17.1808 18.191C17.2806 18.2613 17.4456 18.4214 17.6249 18.6211C17.9836 19.0205 18.3907 19.5684 18.9374 19.9441C19.3291 20.2135 19.6991 20.3332 19.9804 20.3766C20.1566 20.4038 20.2935 20.3985 20.3905 20.3906L22.6312 20.4C22.6444 20.4001 22.6577 20.3997 22.671 20.3988C22.671 20.3988 23.0571 20.4033 23.4585 20.1633C23.6592 20.0432 23.8959 19.8157 23.9729 19.4836C24.05 19.1515 23.9532 18.8074 23.7644 18.4934V18.4922C23.7971 18.5465 23.7347 18.4348 23.6706 18.3305C23.6065 18.2261 23.5135 18.0854 23.38 17.9109C23.1129 17.5619 22.6851 17.0735 21.9937 16.4297H21.9925C21.6413 16.1029 21.4041 15.8716 21.3069 15.743C21.2097 15.6144 21.2416 15.6819 21.2483 15.6492C21.2618 15.5838 21.6833 14.9758 22.5409 13.8305C23.0623 13.1333 23.4281 12.6099 23.6694 12.1746C23.9107 11.7393 24.0847 11.3623 23.9636 10.9008L23.9624 10.8984C23.9086 10.6959 23.7617 10.5091 23.6108 10.4074C23.46 10.3057 23.3169 10.2659 23.189 10.241C22.933 10.1912 22.7097 10.2 22.5022 10.2C22.0674 10.2 20.138 10.2152 19.9792 10.2152C19.7916 10.2152 19.4813 10.3006 19.344 10.3828C18.999 10.5905 18.8999 10.8633 18.8999 10.8633C18.8937 10.8748 18.8878 10.8865 18.8823 10.8984C18.8823 10.8984 18.4843 11.781 17.9718 12.6527C17.4526 13.537 17.069 13.9587 16.8374 14.1539C16.831 14.1192 16.8321 14.1474 16.828 14.0988C16.8073 13.8519 16.8304 13.5107 16.8304 13.1777C16.8304 12.281 16.9064 11.6534 16.8655 11.0988C16.8451 10.8215 16.7937 10.5356 16.6112 10.2727C16.4287 10.0097 16.125 9.83894 15.8249 9.76641C15.6448 9.72297 15.4395 9.60998 14.6964 9.60235H14.6952C14.468 9.60007 14.2493 9.5958 14.0378 9.59531ZM14.6835 10.8023C15.3411 10.8091 15.1773 10.8453 15.5425 10.9336C15.6557 10.961 15.6283 10.9608 15.6257 10.957C15.623 10.9533 15.6563 11.0151 15.669 11.1879C15.6945 11.5334 15.6304 12.2204 15.6304 13.1777C15.6304 13.4388 15.5989 13.8113 15.6315 14.1996C15.6642 14.5879 15.7605 15.0863 16.2245 15.3867C16.4445 15.5293 16.6999 15.5383 16.9183 15.484C17.1367 15.4297 17.3348 15.3166 17.5429 15.15C17.959 14.8168 18.4231 14.2545 19.0065 13.2609C19.5518 12.3335 19.9485 11.4504 19.9616 11.4211C19.9642 11.419 19.9668 11.4176 19.9698 11.4152C19.9773 11.4153 19.9696 11.4152 19.9792 11.4152C20.2032 11.4152 22.0971 11.4 22.5022 11.4C22.5968 11.4 22.6312 11.4057 22.7062 11.4082C22.6858 11.4762 22.7084 11.4328 22.6194 11.5934C22.4328 11.9301 22.0888 12.4305 21.58 13.1109C20.7438 14.2276 20.2255 14.6652 20.0729 15.4066C19.9967 15.7774 20.1396 16.1883 20.3495 16.466C20.5594 16.7437 20.8243 16.9816 21.1757 17.3086C21.8264 17.9145 22.2082 18.3548 22.4272 18.641C22.5368 18.7841 22.6058 18.8875 22.6487 18.9574C22.6916 19.0273 22.681 19.02 22.7366 19.1121C22.7732 19.1734 22.7597 19.136 22.7659 19.1543C22.694 19.1746 22.6068 19.199 22.6019 19.2L20.3952 19.1906C20.3555 19.1906 20.3158 19.1945 20.2769 19.2023C20.2769 19.2023 20.2824 19.2088 20.1644 19.1906C20.0463 19.1724 19.8586 19.1213 19.6171 18.9551C19.3256 18.7548 18.9176 18.2647 18.5179 17.8195C18.318 17.5969 18.1187 17.3832 17.871 17.209C17.6233 17.0348 17.2527 16.871 16.8526 16.9969C16.4373 17.1273 16.114 17.4514 15.9562 17.7996C15.8386 18.0588 15.8291 18.3295 15.8108 18.5988C15.7909 18.6003 15.8138 18.5988 15.7886 18.5988H14.7854C13.4225 18.5988 12.4546 18.6931 11.1104 17.2207C9.30235 15.2399 7.64577 11.9442 7.37568 11.4012L9.45693 11.4C9.49352 11.414 9.57181 11.4434 9.57646 11.4469L9.57881 11.4492C9.50273 11.3936 9.58232 11.4715 9.58232 11.4715C9.58967 11.4895 9.59788 11.5071 9.60693 11.5242C9.60693 11.5242 10.0193 12.3299 10.5409 13.234C11.0525 14.1203 11.4254 14.674 11.7854 15.0398C11.9655 15.2228 12.1472 15.3695 12.3901 15.4523C12.633 15.5352 12.9467 15.5048 13.1577 15.3891C13.5888 15.1531 13.6467 14.8051 13.7167 14.5008C13.7868 14.1961 13.8147 13.8715 13.828 13.5609C13.8539 12.9582 13.8173 12.4365 13.8151 12.4043C13.8153 12.393 13.818 12.1755 13.7835 11.8969C13.7482 11.6116 13.7087 11.2628 13.4507 10.9113L13.4495 10.9102C13.4477 10.9077 13.4455 10.9079 13.4437 10.9055C13.7849 10.8565 14.0769 10.7963 14.6835 10.8023ZM19.9769 11.3906L19.9687 11.4094C19.9674 11.4101 19.9678 11.4085 19.9663 11.4094C19.9688 11.4045 19.9769 11.3906 19.9769 11.3906Z" fill="black"/>
</svg>
